<?xml version="1.0" encoding="UTF-8"?>
<svg id="Capa_1" xmlns="http://www.w3.org/2000/svg" version="1.1" viewBox="0 0 374 416">
  <!-- Generator: Adobe Illustrator 29.4.0, SVG Export Plug-In . SVG Version: 2.1.0 Build 152)  -->
  <path d="M116,29c.7,1.2,2.7.7,3.8.7,29.3.3,59.7-.6,88.8.7,37.4,1.6,83,11.8,103.7,46,1.5,2.5,4.2,9.3,5.4,10.7,1.5,1.7,7.6,3.8,10,5.3,69.2,42.7,33,151.2-23.5,188.9-42.3,28.3-66.5,16.8-112.5,20.4-1.5.1-3,.3-4.4.9l-13.4,64.5c-3.2,10.5-13.1,18.3-24.1,19.2-24-1.6-50.5,2.1-74.2,0-21.3-1.9-30-23.2-23.4-42h-16.4l-6.1-.9c-8.1-2-15.7-7.3-19.3-15-1.4-3-1.8-6.2-2.9-9.4v-7L66,50.7c2.8-11.6,11.4-18.8,22.7-21.7h27.3ZM91.3,50.1c-3.8,1.2-4.9,4.8-5.6,8.4L28.7,317.9c.4,1.8,2.7,4.1,4.6,4.6l75-.2c2.2-1.6,3.1-3.4,3.9-5.9,6.2-19.7,6.7-44.9,13-64.6,2.3-7.4,8.7-12.2,16.4-13,29.1-2.9,59.9,4.2,87.9-6.5,40-15.2,64.1-52.9,70.9-94.1,15-89.8-75.8-86.5-137.9-87.6-23.7-.4-47.5,0-71.2-.5ZM74.1,344.4c-.9,6.6-7,17.2,1.8,20.7l73.6-.2c3.2-1.2,3.7-2.1,4.7-5.1,6.5-19.9,6.9-45.7,13.3-65.7,3.5-10.8,12-12.8,22.2-13.4,26.3-1.7,53.7,4,79-4.9,31.9-11.2,55.3-36.7,66.8-68.2,10.4-28.3,16.9-70.6-10.5-91.6-.7-.5-.9-1.4-2.1-1,1.3,67.9-43.6,134.7-113.6,144l-64.7.7c-4.7,20-6.9,41.9-12.1,61.6-7.7,29.2-34.9,21.9-58.4,23Z"/>
</svg>