<?xml version="1.0" encoding="UTF-8"?>
<svg id="Capa_1" xmlns="http://www.w3.org/2000/svg" version="1.1" viewBox="0 0 566.93 566.93">
  <!-- Generator: Adobe Illustrator 29.5.1, SVG Export Plug-In . SVG Version: 2.1.0 Build 141)  -->
  <path d="M282.24,554.93h-10.6l-11.33-4.05c-72.92-42.64-153.42-77.03-225.87-119.84-11.74-6.94-19.51-15.07-22.62-28.81v-237.54c3.11-13.74,10.88-21.88,22.62-28.81C106.9,93.05,187.36,58.61,260.31,16.03c23.35-11.26,46.83,6.25,67.56,16.61,69.13,34.56,137.5,70.71,206.79,104.99,11.82,6.36,19.33,18.3,20.18,31.79v229.14c-1.37,13.09-8.59,24.51-20.18,30.73-84.45,41.14-166.76,87.41-252.41,125.65ZM503.88,157.28l-224.55-113.3-5.82,1.17-75.04,40.54,218.37,115.61,87.04-44.02ZM381.92,219.82l-217.3-116.16-102.95,53.62,8.46,5.84,206.53,107.44,105.26-50.74ZM261.03,514.64v-215.8L43.64,184.83v212.62c0,.54,1.62,2.46,2.22,3.09l215.18,114.1ZM522.97,184.83l-93.15,45.77c-1.84,22.75,1.84,47.93-.13,70.39-1.23,14.05-15.85,21.75-26.92,11.99-1.44-1.27-4.94-6.29-4.94-7.79v-57.79l-104.99,52.49v215.8l228.71-115.92c.41-.48,1.41-1.95,1.41-2.32v-212.62Z"/>
</svg>